<svg width="81" height="61" viewBox="0 0 81 61" fill="none" xmlns="http://www.w3.org/2000/svg">
<path d="M24.812 60.528C17.132 60.528 10.8173 58.6933 5.868 55.024C2.45467 52.6347 0.748 49.776 0.748 46.448C0.748 45.3387 0.918667 44.4 1.26 43.632C4.50267 35.184 12.524 28.7413 25.324 24.304C22.764 21.8293 21.484 19.0987 21.484 16.112C21.484 14.832 21.74 13.6373 22.252 12.528C23.9587 8.688 27.2867 5.65866 32.236 3.43999C36.332 1.648 40.8547 0.751999 45.804 0.751999C54.9347 0.751999 59.5 3.26933 59.5 8.304C59.5 10.4373 58.5187 12.272 56.556 13.808C54.5933 15.344 52.5027 16.112 50.284 16.112C48.9187 16.112 48.236 15.8133 48.236 15.216C48.236 14.6187 48.8333 14.1067 50.028 13.68C51.7347 12.9973 52.8867 12.272 53.484 11.504C54.4227 10.3093 54.892 9.072 54.892 7.792C54.892 4.72 52.1187 3.184 46.572 3.184C41.452 3.184 36.8867 4.208 32.876 6.256C27.8413 8.816 25.324 12.3573 25.324 16.88C25.324 19.3547 26.348 21.488 28.396 23.28C29.932 22.9387 31.1693 22.7253 32.108 22.64C33.0467 22.4693 33.6867 22.384 34.028 22.384C37.356 22.384 39.02 23.1093 39.02 24.56C39.02 26.352 36.9293 27.248 32.748 27.248C30.444 27.248 28.6947 26.8213 27.5 25.968C22.38 27.3333 17.8147 29.68 13.804 33.008C9.11067 36.9333 6.764 41.2853 6.764 46.064C6.764 50.416 9.11067 53.5307 13.804 55.408C17.388 56.8587 21.612 57.584 26.476 57.584C40.2147 57.584 49.7293 52.7627 55.02 43.12C55.7027 41.7547 56.044 40.688 56.044 39.92C56.044 38.8107 55.4467 37.6587 54.252 36.464C53.0573 35.2693 52.46 34.672 52.46 34.672C52.46 33.9893 53.3133 33.648 55.02 33.648C56.7267 33.648 58.22 34.3307 59.5 35.696C60.78 36.976 61.42 38.4693 61.42 40.176C61.42 42.6507 59.9267 45.3813 56.94 48.368C55.0627 50.3307 52.844 52.08 50.284 53.616C47.8093 55.0667 45.0787 56.3467 42.092 57.456C36.46 59.504 30.7 60.528 24.812 60.528ZM41.964 46.32C34.028 46.32 30.06 44.2293 30.06 40.048C30.06 34.928 34.8813 31.6427 44.524 30.192L61.036 28.144C68.716 27.12 73.708 25.712 76.012 23.92C76.8653 23.3227 77.292 22.8107 77.292 22.384C77.292 22.0427 76.6947 21.5307 75.5 20.848C74.22 20.1653 73.58 19.696 73.58 19.44C73.58 19.0133 74.0067 18.8 74.86 18.8C76.14 18.8 77.3347 19.184 78.444 19.952C79.6387 20.72 80.236 21.7013 80.236 22.896C80.236 27.5893 74.476 30.6613 62.956 32.112C61.2493 32.2827 59.2013 32.4533 56.812 32.624C54.4227 32.7093 51.7347 32.752 48.748 32.752C46.6147 32.752 44.908 32.752 43.628 32.752C42.4333 32.752 41.6653 32.7947 41.324 32.88C35.7773 33.648 33.004 35.3547 33.004 38C33.004 41.4133 36.204 43.4613 42.604 44.144C44.396 44.2293 45.292 44.656 45.292 45.424C45.292 46.0213 44.1827 46.32 41.964 46.32Z" fill="#349494"/>
</svg>
